<svg xmlns="http://www.w3.org/2000/svg" width="256" height="256" viewBox="0 0 100 100"><rect width="100" height="100" rx="20" fill="#ffffff"></rect><path fill="#333333" d="M8.99 67.79Q10.37 67.55 11.33 67.25Q12.29 66.95 13.25 66.23L13.25 66.23L24.47 29.99L28.07 29.99L40.43 66.29Q41.93 67.37 44.39 67.79L44.39 67.79L44.15 70.01L29.15 70.01L29.45 67.79Q32.93 67.37 34.97 66.17L34.97 66.17L31.91 57.11L19.79 57.11L17.03 66.17Q19.01 67.31 22.85 67.79L22.85 67.79L22.61 70.01L8.69 70.01L8.99 67.79ZM20.75 53.99L30.89 53.99L25.61 38.33L20.75 53.99ZM42.05 33.71Q40.73 32.69 38.45 32.15L38.45 32.15L38.69 29.99L53.27 29.99L52.91 32.15Q49.79 32.57 47.75 33.77L47.75 33.77L55.67 60.47L64.61 29.99L66.53 29.99L76.13 60.35L83.27 33.77Q80.87 32.51 77.81 32.15L77.81 32.15L78.11 29.99L91.31 29.99L90.95 32.15Q88.97 32.51 87.35 33.65L87.35 33.65L76.97 70.01L74.09 70.01L64.85 42.29L56.45 70.01L53.57 70.01L42.05 33.71Z"></path></svg>