<svg class="svg-icon" style="width: 1em;height: 1em;vertical-align: middle;fill: currentColor;overflow: hidden;" viewBox="0 0 1024 1024" version="1.1" xmlns="http://www.w3.org/2000/svg"><path d="M128 608V96h575.232l192.512 192L896 608l32 32v224h-32v64H128v-64H96v-224l32-32z m736 32V320h-192V128H160v512h224a32 32 0 0 1-32-32v-160a32 32 0 0 1 32-32h256a32 32 0 0 1 32 32v32h-32v-32h-256v160h32v32h32v-96a32 32 0 0 1 32-32h256a32 32 0 0 1 32 32v96h96z m0 224H160v32h704v-32z m-128-224v-96h-256v96h256zM704 140.48V288h146.624L704 140.48zM576 384h-32v-32H288v160h32v32H288a32 32 0 0 1-32-32v-160a32 32 0 0 1 32-32h256a32 32 0 0 1 32 32v32zM288 782.912c2.112 17.92 8.608 31.584 19.456 40.96 10.88 9.376 26.432 14.08 46.72 14.08 13.92 0 25.568-1.984 34.88-5.888a47.232 47.232 0 0 0 29.312-43.68c0-10.144-2.112-18.656-6.4-25.536a45.024 45.024 0 0 0-17.696-16.32c-7.552-3.968-19.2-7.808-34.944-11.52-15.776-3.712-25.696-7.296-29.76-10.72a12.32 12.32 0 0 1-4.8-9.728c0-4.16 1.696-7.488 5.12-9.952 5.312-3.872 12.704-5.824 22.08-5.824 9.12 0 15.968 1.824 20.512 5.44 4.576 3.584 7.552 9.536 8.928 17.76l32.384-1.408c-0.512-14.72-5.856-26.528-16.032-35.328-10.176-8.832-25.312-13.248-45.44-13.248-12.32 0-22.848 1.856-31.552 5.568-8.736 3.744-15.392 9.152-20.032 16.256-4.64 7.104-6.944 14.72-6.944 22.912 0 12.672 4.928 23.456 14.784 32.256 6.976 6.272 19.168 11.552 36.512 15.872 13.504 3.36 22.144 5.696 25.92 7.008 5.536 1.952 9.44 4.256 11.648 6.944 2.24 2.656 3.328 5.888 3.328 9.664 0 5.92-2.624 11.072-7.904 15.488-5.312 4.416-13.152 6.624-23.584 6.624-9.824 0-17.664-2.496-23.456-7.456-5.792-4.96-9.632-12.704-11.52-23.296L288 782.912z m286.656 31.808c6.432-7.488 11.104-15.264 14.016-23.296 3.84-10.496 5.792-22.656 5.792-36.512 0-26.176-6.944-46.56-20.896-61.12C559.68 679.296 540.8 672 517.024 672c-24 0-42.976 7.264-56.96 21.824-14.016 14.528-21.024 34.88-21.024 61.088 0 26.24 6.976 46.624 20.96 61.12 13.952 14.528 33.28 21.76 57.92 21.76 12.736 0 24.384-2.272 34.88-6.88 13.344 8.96 20.512 13.728 21.536 14.24 4.672 2.56 9.44 4.544 14.336 6.016l11.936-22.88a105.792 105.792 0 0 1-25.92-13.568z m-26.016-18.24a109.952 109.952 0 0 0-30.528-16.416l-9.056 18.496c6.784 2.4 13.44 5.76 20 10.048-4.16 1.536-8.576 2.304-13.216 2.304a39.68 39.68 0 0 1-31.136-13.952c-8.192-9.28-12.288-23.328-12.288-42.048 0-18.464 4.096-32.256 12.288-41.472 8.224-9.184 18.912-13.76 32.096-13.76 13.216 0 23.904 4.576 32.064 13.728 8.16 9.152 12.256 22.976 12.256 41.504 0 8.96-1.056 16.896-3.136 23.84a48.416 48.416 0 0 1-9.344 17.728z m72.064 38.592h112.896v-27.008h-80.512v-132.032h-32.384v159.04z"  /></svg>